<?xml version="1.0" encoding="UTF-8"?>
<svg xmlns="http://www.w3.org/2000/svg" width="464" height="412" viewBox="0 0 464 412">
  <title>AURIGA logo — vectorized</title>
  <rect width="464" height="412" fill="#fdfdfd"/>
  <path d="M 108.5,365.57872 C 104.29203,363.69496 99.148061,358.00305 97.983298,353.94176 97.442484,352.05606 97,344.54773 97,337.2566 V 324 h 3.5 3.5 v 13.03212 c 0,9.07981 0.43666,14.0772 1.43982,16.4781 2.75574,6.5954 11.31138,9.29188 19.12434,6.02742 5.75227,-2.40345 7.38742,-7.42932 7.41388,-22.78764 L 132,324 h 3 3 v 15.04966 c 0,15.98332 -0.53446,18.3257 -5.16863,22.65261 -5.37157,5.01541 -17.47844,6.94427 -24.33137,3.87645 z m 177,-0.0831 c -2.24002,-0.79332 -6.05216,-3.56162 -8.66407,-6.29168 -5.18008,-5.41441 -6.62952,-10.4262 -5.3954,-18.6559 0.87471,-5.83302 7.73897,-13.68734 14.0776,-16.10808 11.59006,-4.42629 32.94573,2.46081 24.37151,7.85969 -1.17869,0.74218 -2.80467,0.43583 -6.06573,-1.14282 -8.94284,-4.32915 -19.02486,-1.60334 -23.53708,6.36358 -2.857,5.04442 -2.86226,9.89218 -0.0163,14.97962 2.69325,4.8144 9.29674,8.5 15.22943,8.5 4.8723,0 12.86611,-3.77611 13.33258,-6.29804 C 309.38651,351.70715 307.07257,350 302.45934,350 296.62641,350 295,349.21354 295,346.39301 295,344.02853 295.11922,344 305,344 h 10 v 7.864 7.864 l -3.93435,2.7265 c -6.60746,4.57898 -17.54845,5.88043 -25.56565,3.04109 z M 29.600665,365.16288 c -0.322869,-0.52241 3.797399,-9.88527 9.156151,-20.80636 12.852006,-26.19227 11.530919,-26.14598 24.447194,-0.85652 5.337205,10.45 9.724705,19.81601 9.75,20.81336 0.03679,1.45052 -0.604307,1.75066 -3.20401,1.5 -3.128867,-0.30168 -3.527389,-0.88175 -10.692359,-15.56336 -4.093297,-8.3875 -7.693297,-15.24118 -8,-15.23041 -0.306702,0.0108 -3.773804,6.87328 -7.704669,15.25 -6.724216,14.32939 -7.325046,15.24853 -10.156151,15.53677 -1.655018,0.1685 -3.273288,-0.12107 -3.596156,-0.64348 z M 168,344.99297 v -21.13376 l 15.48353,0.3204 15.48354,0.32039 3.12559,3.12836 c 6.05723,6.06258 4.75075,16.17143 -2.65471,20.54075 -1.89087,1.11564 -3.43795,2.40419 -3.43795,2.86343 0,0.45925 2.25,3.63855 5,7.06511 2.75,3.42657 5,6.60637 5,7.06624 0,0.45986 -1.5493,0.83611 -3.44288,0.83611 -3.08677,0 -4.02837,-0.74991 -9.10324,-7.25 -3.11319,-3.9875 -6.1764,-7.54673 -6.80712,-7.90939 -0.63072,-0.36267 -3.39676,-0.7994 -6.14676,-0.97051 l -5,-0.31111 -0.5,7.9705 -0.5,7.97051 -3.25,0.31336 -3.25,0.31336 z M 177,346 c 0,-0.56461 2.84404,-1 6.53212,-1 7.85119,0 13.03631,-1.95871 14.66858,-5.54114 1.47096,-3.22841 -0.37201,-7.22702 -4.23093,-9.17966 -3.20193,-1.62019 -17.16983,-1.67914 -18.76977,-0.0792 -1.24225,1.24225 -1.6768,12.39391 -0.59301,15.21821 C 175.2765,347.16293 177,347.58195 177,346 Z m 59,-1 v -21 h 3 3 v 21 21 h -3 -3 z m 106.54077,20.06597 c -0.3175,-0.51372 3.81845,-9.85122 9.19098,-20.75 8.65223,-17.55199 10.04296,-19.81597 12.1727,-19.81597 2.12647,0 3.55007,2.2991 12.31362,19.88638 6.24585,12.53459 9.5586,20.23695 8.96089,20.83466 -0.52156,0.52156 -2.01269,0.79769 -3.31362,0.61362 -1.93861,-0.27428 -3.7184,-2.99537 -9.86534,-15.08292 -4.125,-8.11154 -7.78864,-14.74904 -8.14143,-14.75 -0.35279,-9.6e-4 -3.91886,6.74826 -7.92459,14.99826 -6.77983,13.96336 -7.47435,15 -10.04956,15 -1.52151,0 -3.02616,-0.42032 -3.34365,-0.93403 z M 199,295 c 0,-0.55 0.675,-1 1.5,-1 0.825,0 1.5,0.45 1.5,1 0,0.55 -0.675,1 -1.5,1 -0.825,0 -1.5,-0.45 -1.5,-1 z m -17.5,-1.60015 C 170.42231,291.43262 153.08995,285.8479 143.2557,281.07701 117.38829,268.52797 92.790582,244.338 79.86953,218.74154 64.645233,188.58238 62.140807,151.59405 73.105123,118.8368 c 1.718836,-5.13524 4.389068,-11.84357 5.933847,-14.90739 8.661988,-17.179683 26.4639,-37.752841 42.47232,-49.084034 18.31305,-12.962473 48.11327,-24.497943 51.04256,-19.758244 1.1415,1.846979 -1.14324,3.148934 -11.43482,6.516123 C 129.50249,51.94752 105.96764,70.127105 90.051024,96.5 c -10.535573,17.45683 -15.804289,33.08209 -18.056469,53.54948 -4.210869,38.2676 15.048009,83.30515 46.694135,109.19582 17.60809,14.40573 47.43396,28.1369 71.32775,32.83772 3.29096,0.64745 5.98356,1.56864 5.98356,2.04709 0,1.20258 -5.04739,0.94838 -14.5,-0.73026 z M 132,229.57673 c 0,-11.79254 -0.12693,-12.57412 -2.5,-15.39436 -2.5429,-3.02207 -3.39343,-8.51216 -1.5,-9.68237 1.64467,-1.01646 1.16148,-5.95772 -1.98971,-20.34756 -6.18494,-28.24335 -7.83763,-36.6228 -7.37181,-37.37651 1.07191,-1.73438 2.17646,-0.56899 2.81879,2.97407 0.99201,5.47184 9.45265,44.10127 10.6225,48.5 0.54853,2.0625 1.51785,3.75 2.15406,3.75 0.6362,0 2.41005,1.20076 3.94189,2.66835 l 2.78515,2.66834 20.76956,-1.75177 C 195.59657,202.72853 198,202.60997 198,203.79583 c 0,1.369 -3.5584,1.81335 -30,3.74627 -28.15007,2.05782 -27.29536,1.89133 -30.92361,6.02368 L 134,217.06959 v 12.46521 c 0,7.64347 -0.38682,12.4652 -1,12.4652 -0.613,0 -1,-4.80776 -1,-12.42327 z m 93.41955,-14.56532 C 215.51151,210.22172 211.02449,207 214.26176,207 c 1.86795,0 16.34508,7.28276 19.7233,9.92186 4.68359,3.65887 1.47482,2.94319 -8.56551,-1.91045 z M 243,215.52515 c 0,-1.67226 12.34799,-47.18674 12.98495,-47.86228 2.34674,-2.48891 1.34108,3.32167 -4.27082,24.67624 -3.91736,14.90646 -6.67614,23.6489 -7.46413,23.65354 -0.6875,0.004 -1.25,-0.20633 -1.25,-0.4675 z m -35,-20.63276 c 0,-2.69167 29.13052,-75.42291 30.92887,-77.22126 3.14206,-3.14206 1.28089,2.91558 -8.4624,27.54297 -18.18067,45.95396 -19.92388,50.10619 -21.21647,50.53647 -0.6875,0.22885 -1.25,-0.15733 -1.25,-0.85818 z m 47.22641,-43.53503 c -1.84405,-3.57198 -10.3608,-33.5563 -9.71482,-34.20228 0.73687,-0.73687 3.48841,2.65519 3.48841,4.30047 0,0.59031 2.0212,7.5731 4.49156,15.51731 2.65767,8.54657 4.12454,14.81104 3.59264,15.34294 -0.53189,0.53189 -1.29042,0.14056 -1.85779,-0.95844 z m 68.15127,-11.55457 C 322.93461,139.08625 321.39739,134 319.96164,128.5 309.28876,87.614726 280.93378,56.537721 241,41.958175 c -5.54028,-2.022719 -7.57914,-3.256271 -7.80287,-4.720909 -0.48808,-3.195139 2.34155,-3.359883 10.06615,-0.586065 27.00423,9.696912 54.57922,32.747458 69.37218,57.989727 7.15674,12.212062 14.88315,35.387582 14.17821,42.527872 -0.33589,3.40222 -2.11675,4.76741 -3.43599,2.63399 z m -202.75726,-6.60794 c -0.33892,-0.54839 4.78283,-8.43857 11.38168,-17.53372 C 141.74954,102.22628 144,98.485382 144,95.71723 144,91.70391 146.51878,89 150.25731,89 c 3.1658,0 1.22534,1.955488 24.63934,-24.830109 C 185.55526,51.976451 194.66386,42 195.13797,42 c 2.22326,0 -0.148,3.23172 -13.42232,18.292866 C 155.73472,89.771016 155,90.709102 155,94.403232 c 0,3.891873 -1.33014,5.287312 -5.48884,5.758278 -2.57312,0.29141 -4.55458,2.48885 -14.2458,15.79857 -12.61779,17.32904 -13.75764,18.67045 -14.64494,17.23477 z M 230.20151,90.25 C 225.81069,82.6875 218.1191,69.426868 213.1091,60.78193 204.49488,45.917787 202.53059,41.343531 205.13457,42.211524 206.5221,42.674033 240,100.67383 240,102.61519 c 0,3.42265 -2.36428,0.43906 -9.79849,-12.36519 z" fill="#00223e"/>
  <path d="m 285.19605,298.16195 c -2.91718,-1.04013 -6.62968,-3.16127 -8.25,-4.71364 L 274,290.62582 v -20.16689 c 0,-20.14119 0.003,-20.17033 2.5074,-22.87241 C 281.57313,242.12051 287.17396,240.5 301,240.5 c 13.82604,0 19.42687,1.62051 24.4926,7.08652 2.29177,2.47286 2.50872,3.48844 2.52271,11.8095 0.0193,11.49184 0.64687,12.66403 5.13129,9.58481 8.96668,-6.15695 13.17631,-11.97888 15.32673,-21.19693 1.27815,-5.47892 1.27111,-7.01268 -0.059,-12.86068 C 344.61127,218.20237 328.33543,198.81726 305.5,183.81069 296.62806,177.98039 276.58725,167.41452 270.25,165.22626 267.04105,164.11821 265.76759,162 268.31039,162 c 1.33138,0 9.21418,3.0093 18.0822,6.90298 14.63319,6.42499 36.46312,21.81575 47.10741,33.21215 13.13862,14.06698 18.81349,26.0413 18.90222,39.88487 0.0459,7.16442 -0.36168,9.39507 -2.59405,14.1965 -3.09584,6.65856 -9.6406,13.57814 -15.30817,16.18484 -5.67276,2.60909 -6.5,4.08829 -6.5,11.6227 0,5.91853 -0.29205,6.90152 -2.75,9.25582 -4.89428,4.68791 -9.6992,6.0472 -22.75,6.43586 -9.87123,0.29398 -12.94091,0.0219 -17.30395,-1.53377 z M 313.5,294.51807 c 7.87154,-2.39756 9.84796,-4.41938 9.93029,-10.15836 0.0798,-5.56334 -0.0291,-5.5972 -9.39822,-2.92136 C 311.02471,282.29726 305.16028,283 301,283 c -4.16028,0 -10.02471,-0.70274 -13.03207,-1.56165 -8.94632,-2.55509 -9.4239,-2.46866 -9.77577,1.76931 -0.5686,6.84824 2.79272,9.77749 14.1764,12.35415 6.87193,1.55545 13.7062,1.21788 21.13144,-1.04374 z M 312.98302,277.4124 C 319.90829,275.35582 324,271.35344 324,266.63594 c 0,-1.93485 -0.4272,-3.78193 -0.94932,-4.10462 -0.52213,-0.32269 -3.65794,0.32575 -6.96846,1.44098 C 311.79275,265.41732 307.45872,266 301,266 c -6.45872,0 -10.79275,-0.58268 -15.08222,-2.0277 -3.31052,-1.11523 -6.44633,-1.76367 -6.96846,-1.44098 -1.81638,1.12259 -1.00614,7.29109 1.31162,9.98565 4.99488,5.8069 21.39221,8.26004 32.72208,4.89543 z m -0.10899,-16.86647 C 318.57692,259.02806 323,255.73196 323,253 c 0,-4.75626 -10.34285,-8.97626 -22,-8.97626 -12.25049,0 -22,4.22578 -22,9.53556 0,6.50635 20.10137,10.65232 33.87403,6.98663 z m -55.70518,23.09002 c -1.75785,-0.97515 -6.80021,-1.1812 -20.5033,-0.83784 -10.98654,0.27529 -21.72962,-0.0107 -27.16885,-0.72335 -17.5123,-2.29436 -40.58358,-10.3681 -58.15244,-20.3503 -12.78517,-7.26422 -14.13679,-8.29266 -12.75004,-9.70136 0.79965,-0.81231 3.76098,0.43275 11,4.62482 31.52408,18.25536 66.28683,26.51106 96.72565,22.97107 5.74299,-0.6679 7.2297,-1.25311 9.4153,-3.70607 4.41359,-4.9535 11.26483,-2.97028 11.26483,3.26083 0,4.8871 -4.98583,7.15008 -9.83115,4.4622 z" fill="#008394"/>
  <path d="M 46.72991,359.39658 C 46.023406,358.69007 50.065372,350 51.10049,350 52.093829,350 56,356.82226 56,358.55716 56,359.5923 54.775554,360 51.666667,360 c -2.383334,0 -4.604874,-0.27154 -4.936757,-0.60342 z M 359.5212,359.0343 C 358.78565,357.84416 362.67443,350 364,350 c 1.32557,0 5.21435,7.84416 4.4788,9.0343 C 368.15054,359.56543 366.13508,360 364,360 c -2.13508,0 -4.15054,-0.43457 -4.4788,-0.9657 z M 238.57143,226.42857 C 235.43524,223.29238 237.62256,217 241.84892,217 c 2.79366,0 6.15108,2.9484 6.15108,5.40172 0,4.67541 -6.15239,7.30304 -9.42857,4.02685 z M 201,208 c -2.70273,-2.70273 -2.51846,-6.57245 0.45455,-9.54545 2.99863,-2.99864 5.45043,-3.10374 8.91059,-0.38197 C 215.44861,202.07123 212.54687,210 206,210 c -1.66667,0 -3.88889,-0.88889 -5,-2 z m 53,-43 c -4.11497,-4.11497 -0.71106,-12 5.18031,-12 2.54857,0 6.81969,4.38405 6.81969,7 0,2.88952 -4.37739,7 -7.45455,7 -1.4,0 -3.44545,-0.9 -4.54545,-2 z m -140.84794,-22.64777 -2.34795,-3.62301 3.45743,-3.45743 3.45743,-3.45743 3.64052,3.19641 c 2.00228,1.75803 3.64051,3.55221 3.64051,3.98707 0,1.63352 -5.87612,7.00167 -7.65121,6.98978 -1.01759,-0.007 -2.9044,-1.64125 -4.19673,-3.63539 z m 126.15628,-26.54669 c -2.70667,-1.30798 -3.17021,-2.45367 -2.58654,-6.39288 0.30465,-2.05607 1.42062,-3.65629 3.34095,-4.79066 2.7248,-1.60957 3.03634,-1.60604 5.66038,0.0642 5.10279,3.24808 5.62238,6.05916 1.82232,9.85921 -2.62714,2.62714 -4.73949,2.95028 -8.23711,1.26009 z M 199.16008,47.760081 C 198.52204,47.122037 198,45.730615 198,44.668034 c 0,-4.03244 -3.96835,-8.574545 -9.07649,-10.388796 -2.71294,-0.963551 -4.79274,-2.171545 -4.62178,-2.684431 0.17096,-0.512885 2.05567,-1.536594 4.18824,-2.274909 5.50685,-1.906521 7.33977,-3.926397 9.12004,-10.05032 0.85995,-2.958117 2.04906,-5.216553 2.64248,-5.018748 0.80644,0.268814 4.51594,9.350622 4.71935,11.554199 0.0155,0.167766 2.50316,1.399591 5.52816,2.73739 3.025,1.337799 5.5,2.853137 5.5,3.367419 0,0.514282 -1.54688,1.445575 -3.43752,2.069541 -5.50112,1.815533 -8.46776,4.758814 -9.69031,9.614003 -1.25569,4.986774 -2.02664,5.852147 -3.71209,4.166699 z" fill="#cd9846"/>
  <circle cx="133" cy="249" r="6.4" fill="#005471"/>
</svg>